<svg xmlns="http://www.w3.org/2000/svg" fill="currentColor" height="24" viewBox="0 0 24 24" width="24" focusable="false" aria-hidden="true" style="pointer-events: none; display: inherit; width: 100%; height: 100%;"><path clip-rule="evenodd" d="M20.5 12c0 4.694-3.806 8.5-8.5 8.5S3.5 16.694 3.5 12 7.306 3.5 12 3.5s8.5 3.806 8.5 8.5Zm1.5 0c0 5.523-4.477 10-10 10S2 17.523 2 12 6.477 2 12 2s10 4.477 10 10Zm-9.25-5c0-.414-.336-.75-.75-.75s-.75.336-.75.75v5.375l.3.225 4 3c.331.248.802.181 1.05-.15.248-.331.181-.801-.15-1.05l-3.7-2.775V7Z" fill-rule="evenodd" fill="white"></path><svg xmlns="http://www.w3.org/2000/svg" enable-background="new 0 0 24 24" height="24" viewBox="0 0 24 24" width="24" focusable="false" aria-hidden="true" style="pointer-events: none; display: inherit; width: 100%; height: 100%;" fill="white"><path d="M6 12c0-3.31 2.69-6 6-6s6 2.69 6 6c0 1.66-.67 3.16-1.77 4.25l-.71-.71C16.44 14.63 17 13.38 17 12c0-2.76-2.24-5-5-5s-5 2.24-5 5c0 1.38.56 2.63 1.47 3.54l-.71.71C6.67 15.16 6 13.66 6 12zm8 0c0-1.1-.9-2-2-2s-2 .9-2 2c0 .74.4 1.38 1 1.72V22h2v-8.28c.6-.34 1-.98 1-1.72zm-9.06 7.08.71-.71C4.01 16.74 3 14.49 3 12c0-4.96 4.04-9 9-9s9 4.04 9 9c0 2.49-1.01 4.74-2.65 6.37l.71.71C20.88 17.27 22 14.77 22 12c0-5.52-4.48-10-10-10S2 6.48 2 12c0 2.77 1.12 5.27 2.94 7.08z"></path></svg></svg>